<svg xmlns="http://www.w3.org/2000/svg" fill="none" viewBox="0 0 100 100"><path fill="#E72564" d="M55.096 95.251c-2.521 3.459-7.684 3.459-10.2 0l-20.98-28.816a6.308 6.308 0 0 1 3.042-9.675l20.98-7.242a6.33 6.33 0 0 1 4.116 0l20.98 7.242c4.007 1.383 5.537 6.25 3.04 9.675zm-5.1-5.245 19.533-26.83-19.533-6.741-19.534 6.741L50 90.01z"/><path fill="#E723A0" d="M98.792 56.094c2.516 3.467.92 8.375-3.15 9.7l-33.888 11.05a6.308 6.308 0 0 1-8.262-5.883l-.405-22.192a6.32 6.32 0 0 1 1.271-3.916L67.73 27.144a6.31 6.31 0 0 1 10.142.092l20.925 28.858zm-6.559 3.23L72.75 32.457 60.3 48.949l.375 20.662z"/><path fill="#E520E9" d="M75.067 2.463a6.308 6.308 0 0 1 8.25 6l.037 35.642a6.307 6.307 0 0 1-8.15 6.042l-21.229-6.475a6.3 6.3 0 0 1-3.333-2.417L37.934 23.063a6.307 6.307 0 0 1 3.225-9.616zm1.042 7.242L44.542 19.93l11.837 16.937 19.767 6.025z"/><path fill="#E520E9" d="M24.958 2.48a6.308 6.308 0 0 0-8.25 6l-.041 35.637a6.31 6.31 0 0 0 8.15 6.041l21.229-6.474a6.3 6.3 0 0 0 3.33-2.417l12.716-18.192a6.31 6.31 0 0 0-3.23-9.616zm-1.041 7.24 31.57 10.225-11.841 16.937-19.763 6.025z"/><path fill="#E723A0" d="M1.208 56.089c-2.516 3.466-.92 8.374 3.15 9.704l33.888 11.045a6.308 6.308 0 0 0 8.262-5.883l.404-22.187a6.3 6.3 0 0 0-1.27-3.917L32.27 27.139a6.308 6.308 0 0 0-10.142.095zm6.559 3.233L27.25 32.45 39.7 48.947l-.375 20.658z"/><path fill="#FF96D1" d="m70.592 73.963 5.483-7.525a6.3 6.3 0 0 0 1.02-2.18l-10.957 3.576-6.78 9.312a6.3 6.3 0 0 0 2.396-.3zM53.108 49.88l.138 7.675 7.258 2.508-.141-7.68zm30.238-15.092-5.475-7.55a6.3 6.3 0 0 0-1.746-1.638l.013 11.53 6.766 9.333a6.3 6.3 0 0 0 .45-2.358zM62.354 46.23l-7.341-2.238 4.625-6.13 7.341 2.238-4.625 6.125zm-12.337-5.875 4.4-6.292-4.4-6.292-4.4 6.292zM39.033 14.62a6.3 6.3 0 0 1 2.125-1.175l8.834-2.858 8.875 2.875c.796.258 1.5.654 2.096 1.15l-10.975 3.554zm5.971 29.388-4.625-6.134-7.341 2.238 4.625 6.125L45.004 44zm-27.9 2.433 6.784-9.358.012-11.513a6.3 6.3 0 0 0-1.77 1.659l-5.45 7.516-.01 9.375c0 .825.155 1.609.434 2.321m29.788 3.433-7.254 2.505-.142 7.679 7.258-2.504zm-6.267 27.263-6.783-9.32-10.954-3.572c.191.763.529 1.5 1.029 2.188l5.47 7.516 8.859 2.888a6.3 6.3 0 0 0 2.38.3"/></svg>